<?xml version="1.0" encoding="UTF-8"?>
<svg width="73px" height="83px" viewBox="0 0 73 83" version="1.1" xmlns="http://www.w3.org/2000/svg" xmlns:xlink="http://www.w3.org/1999/xlink">
    <!-- Generator: Sketch 51.2 (57519) - http://www.bohemiancoding.com/sketch -->
    <title>animation</title>
    <desc>Created with Sketch.</desc>
    <defs></defs>
    <g id="Page-1" stroke="none" stroke-width="1" fill="none" fill-rule="evenodd">
        <g id="Homepage-Copy" transform="translate(-820.000000, -308.000000)" fill="#FFFFFF" fill-rule="nonzero" stroke="#4A6AE2" stroke-width="0.5">
            <g id="animations-card" transform="translate(756.000000, 277.000000)">
                <g id="animation" transform="translate(65.000000, 32.000000)">
                    <path d="M70.9993446,21.0849215 C70.9987745,21.0157581 70.9947838,20.9465947 70.985662,20.8774313 C70.9850919,20.8726125 70.9839516,20.8680772 70.9830965,20.8632584 C70.9742598,20.8014649 70.9614323,20.7396713 70.9457542,20.6784447 C70.9414784,20.6614373 70.9366324,20.6449968 70.9317865,20.6282729 C70.9172487,20.5783845 70.9004304,20.5290631 70.8810466,20.4803085 C70.8744903,20.463868 70.8687892,20.4474275 70.8616628,20.4309871 C70.8351527,20.369477 70.805792,20.3088173 70.7713002,20.2492914 C70.7368085,20.1900489 70.6986111,20.134208 70.6581332,20.0809181 C70.6473011,20.0667453 70.6358989,20.0531394 70.6244967,20.03925 C70.5917153,19.9984322 70.5577937,19.9595987 70.5218767,19.9224659 C70.5093342,19.9094269 70.4967918,19.8966713 70.4839643,19.8839158 C70.4394956,19.8408304 70.3933166,19.8000126 70.3451423,19.7623129 C70.3402963,19.7583445 70.3357354,19.7540926 70.3306044,19.7501242 C70.2755887,19.7081726 70.2182926,19.6704729 70.159001,19.6358912 C70.1541551,19.6330566 70.1498792,19.6293717 70.1450333,19.6265371 L36.3554089,0.227899131 C36.3508481,0.225348022 36.3460021,0.223647282 36.3414412,0.221096172 C36.2810095,0.187081377 36.2188674,0.156184604 36.1544448,0.12953968 C36.1498839,0.127838941 36.145323,0.126421657 36.1410472,0.124720918 C36.0826108,0.101194017 36.0224641,0.0816355098 35.9611772,0.0643446553 C35.944644,0.0598093492 35.9278257,0.0555574997 35.9110074,0.0515891069 C35.8599825,0.0391170151 35.8078173,0.0289125764 35.7550821,0.0209757907 C35.7382638,0.018424681 35.7214455,0.0153066581 35.7043422,0.0133224617 C35.6373541,0.00538567599 35.5695109,0 35.5002424,0 C35.4309739,0 35.3631307,0.00538567599 35.2961427,0.0133224617 C35.2790394,0.0153066581 35.2622211,0.018424681 35.2454028,0.0209757907 C35.1926675,0.0289125764 35.1405024,0.0388335585 35.0894775,0.0515891069 C35.0726592,0.0558409563 35.056126,0.0598093492 35.0393077,0.0643446553 C34.9780207,0.0813520531 34.917874,0.101194017 34.8594377,0.124720918 C34.8548768,0.126421657 34.8503159,0.127838941 34.8460401,0.12953968 C34.7813325,0.156184604 34.7191904,0.187081377 34.6590436,0.221096172 C34.6544828,0.223647282 34.6496368,0.225348022 34.6450759,0.227899131 L0.855166514,19.6271041 C0.850035515,19.6299386 0.845474627,19.633907 0.840343628,19.6367416 C0.780767027,19.6716067 0.72290076,19.7095899 0.667599992,19.751825 C0.665034492,19.7535257 0.663039104,19.7557934 0.66075866,19.7577776 C0.609733724,19.797178 0.561559344,19.8402634 0.514810241,19.8856165 C0.502267799,19.8978051 0.490010412,19.9105607 0.477753026,19.9233162 C0.442121088,19.9604491 0.407914427,19.9992826 0.375133044,20.0401004 C0.363730824,20.0542732 0.352043548,20.0681626 0.341211439,20.0826189 C0.303014001,20.1336411 0.266811952,20.1866474 0.233745514,20.2430553 C0.232035181,20.2458899 0.230039792,20.248441 0.228329459,20.2512756 C0.227759348,20.2521259 0.227189237,20.2529763 0.226619126,20.2538267 C0.192697521,20.3127856 0.16362186,20.3731619 0.137396753,20.4341051 C0.131125532,20.4488448 0.125709478,20.4641515 0.120008367,20.4788912 C0.100054482,20.5290631 0.0826660963,20.5798018 0.0678432101,20.630824 C0.063282322,20.646981 0.058721434,20.6628546 0.0544456014,20.6792951 C0.0387675486,20.7399548 0.0262251064,20.8006145 0.0176734413,20.8618411 C0.0168182748,20.8675103 0.0153929972,20.8731794 0.0148228862,20.879132 C0.00570111009,20.9485789 0.00142527752,21.0183092 0.000855166514,21.0877561 C0.000855166514,21.0920079 0,21.0962598 0,21.1005116 L0,59.8989215 C0,59.9040237 0.000855166514,59.9088424 0.00114022202,59.9139447 C0.00171033303,59.9831081 0.00570111009,60.0522715 0.0148228862,60.1214349 C0.0153929972,60.1262537 0.0165332193,60.130789 0.0173883858,60.1356078 C0.0262251064,60.1974013 0.0390526041,60.2591948 0.0547306569,60.3204215 C0.0590064895,60.3374289 0.063852433,60.3538694 0.0686983766,60.3705933 C0.0832362073,60.4204817 0.100054482,60.4698031 0.119438256,60.5185577 C0.125994533,60.5349981 0.131695643,60.5514386 0.138822031,60.5678791 C0.165332193,60.6293892 0.19469291,60.6900489 0.229184626,60.7495748 C0.230324848,60.751559 0.231750125,60.7532598 0.232890347,60.7552439 C0.269662507,60.8181713 0.310425445,60.878831 0.355179159,60.9366562 C0.380549099,60.9698206 0.409339705,60.9990167 0.436990089,61.0299134 C0.458939362,61.0545742 0.479463359,61.0803687 0.50283791,61.1036121 C0.538184793,61.1387608 0.576667286,61.169941 0.614579668,61.2014047 C0.633963442,61.2172783 0.651636884,61.2348526 0.671590769,61.2501592 C0.71463415,61.2830402 0.760528086,61.3113859 0.806422023,61.3397315 C0.822955242,61.349936 0.838063184,61.3624081 0.855166514,61.3720456 L0.864858401,61.3777147 C0.866568734,61.3785651 0.868279067,61.3796989 0.8699894,61.3805493 L24.6684183,75.0437258 C25.4873828,75.5136969 26.5326813,75.2344921 27.0047332,74.421255 C27.4767851,73.608018 27.1968606,72.5677321 26.3787513,72.0980445 L5.13099908,59.8994884 L11.9959908,55.9583074 L33.7899094,68.4703665 L33.7899094,79.2986933 C33.7899094,79.3049293 33.7907646,79.3108819 33.7907646,79.3168345 C33.7910496,79.3534004 33.7936151,79.3899663 33.7964657,79.4265322 C33.797891,79.4466577 33.7987461,79.4670665 33.8010266,79.4869085 C33.8047323,79.5203564 33.8104334,79.5535208 33.8164196,79.5869687 C33.8204103,79.6099287 33.823546,79.6331721 33.8283919,79.6561321 C33.8343781,79.6836274 33.8423596,79.7111227 33.8497711,79.738618 C33.8571825,79.7661133 33.8640238,79.793892 33.8728606,79.8208204 C33.8799869,79.84293 33.8888237,79.8647562 33.8970903,79.8865824 C33.9087776,79.918046 33.9204648,79.9497932 33.9338624,79.9804065 C33.942129,79.9991146 33.9518209,80.0172559 33.9606577,80.035964 C33.9766208,80.0685615 33.9925839,80.1008756 34.0102573,80.1323393 C34.0133929,80.1377249 34.0156734,80.1436775 34.018809,80.1490632 C34.02394,80.1578503 34.0304963,80.1655037 34.0359123,80.1742908 C34.0647029,80.2219115 34.095774,80.2678315 34.1291255,80.3123342 C34.1408127,80.3279243 34.1519299,80.3435144 34.1639022,80.3585376 C34.2046652,80.4092764 34.2477085,80.4583144 34.2938875,80.5042344 C34.306715,80.5167064 34.3203977,80.5277613 34.3335103,80.5399499 C34.3694272,80.5733978 34.4067695,80.6054284 34.4455371,80.6357582 C34.4643507,80.650498 34.4834494,80.6646708 34.5028332,80.6785602 C34.542741,80.7071893 34.583789,80.7335508 34.6259772,80.7587784 C34.640515,80.7672821 34.6541977,80.7766362 34.6690206,80.7848564 C34.727457,80.8171705 34.7878887,80.8463665 34.8503159,80.8718776 C34.8591526,80.8755625 34.8679893,80.8781136 34.876826,80.8815151 C34.9307015,80.9024909 34.9860023,80.9206321 35.0421582,80.9362223 C35.0589765,80.9407576 35.0760798,80.9450094 35.0928981,80.9492613 C35.1424978,80.9614499 35.1929526,80.9710874 35.2442626,80.9787408 C35.2625061,80.9815753 35.2804646,80.9846933 35.2987082,80.986961 C35.3608503,80.9943309 35.4235625,80.9985827 35.4874149,80.9991496 C35.4919758,80.9991496 35.4965367,81 35.5010976,81 C35.5099343,81 35.5190561,80.9985827 35.5278928,80.9982993 C35.5849039,80.9974489 35.6413449,80.993764 35.6969307,80.9875279 C35.7194501,80.9849768 35.7419695,80.9807249 35.7644889,80.9773235 C35.8103828,80.9702371 35.8557066,80.9617334 35.9001753,80.950962 C35.9212694,80.9458598 35.9423635,80.9407576 35.9634576,80.934805 C36.0190435,80.9192149 36.0737741,80.9010736 36.1267944,80.8800978 C36.1356312,80.8766964 36.1447529,80.8741453 36.1535897,80.8704603 C36.2182973,80.8438154 36.2804394,80.8129186 36.3405861,80.7789038 C36.3451469,80.7763527 36.3499929,80.774652 36.3545538,80.7721009 L70.1444632,61.3728959 C70.6735262,61.0690304 70.9996297,60.5075029 70.9996297,59.9000553 L70.9996297,21.0999447 C71.0004849,21.0951259 70.9996297,21.0900237 70.9993446,21.0849215 Z M13.7063238,51.0474212 L13.7063238,29.9077926 L20.5801523,33.8311158 L20.5801523,47.1008546 L13.7063238,51.0474212 Z M3.42066606,24.0374058 L10.2856578,27.9556268 L10.2856578,53.0114922 L3.42066606,56.9526732 L3.42066606,24.0374058 Z M33.7899094,37.4491563 L25.7787095,32.8767174 L33.7899094,28.2776335 L33.7899094,37.4491563 Z M37.2105755,28.2773501 L45.2893335,32.9155509 L37.2105755,37.5534683 L37.2105755,28.2773501 Z M48.7099996,30.9514799 L37.2105755,24.3494915 L37.2105755,16.4569251 L55.583828,27.0051967 L48.7099996,30.9514799 Z M33.7899094,12.5290666 L20.9624117,19.8935533 C20.1443024,20.3632409 19.8640928,21.4035268 20.3364298,22.2167638 C20.8087668,23.0300009 21.8549205,23.3092057 22.6727447,22.8392346 L33.7899094,16.4566416 L33.7899094,24.3494915 L22.3480665,30.9183155 L5.13841053,21.0956929 L33.7899094,4.6464211 L33.7899094,12.5290666 Z M24.0008183,35.7838486 L32.1707941,40.4469936 L24.0008183,45.1373505 L24.0008183,35.7838486 Z M33.7899094,43.4451144 L33.7899094,52.7212327 L25.7111514,48.0833153 L33.7899094,43.4451144 Z M37.2105755,43.3235115 L45.4190338,48.0087662 L37.2105755,52.7212327 L37.2105755,43.3235115 Z M37.2105755,56.6488077 L48.8496768,49.9666011 L55.7437442,53.9015461 L37.2105755,64.5416576 L37.2105755,56.6488077 Z M50.4203326,46.940985 L50.4203326,39.9325198 C50.4203326,38.993428 49.6543885,38.23178 48.7099996,38.23178 C47.7656107,38.23178 46.9996665,38.993428 46.9996665,39.9325198 L46.9996665,44.9888192 L39.0272342,40.4384899 L57.294161,29.9511615 L57.294161,50.8645917 L50.4203326,46.940985 Z M59.0044941,25.0414092 L37.2105755,12.52935 L37.2105755,4.6464211 L65.8694858,21.0999447 L59.0044941,25.0414092 Z M15.4166569,53.993386 L22.2904853,50.0471028 L33.7899094,56.6490912 L33.7899094,64.5419411 L15.4166569,53.993386 Z M37.2105755,76.3518782 L37.2105755,68.4692327 L59.1743871,55.8596645 L63.1543321,58.1312859 C63.4228544,58.284636 63.7156064,58.3572008 64.0040826,58.3572008 C64.596713,58.3572008 65.1730952,58.0505008 65.4892217,57.5028626 C65.9592783,56.6882082 65.6762182,55.6487727 64.8572537,55.1813528 L60.7148271,52.817041 L60.7148271,27.9870905 L67.5798188,24.0459095 L67.5798188,58.9167442 L37.2105755,76.3518782 Z" id="Shape"></path>
                </g>
            </g>
        </g>
    </g>
</svg>