<?xml version="1.0" encoding="UTF-8"?>
<svg width="86px" height="80px" viewBox="0 0 86 80" version="1.1" xmlns="http://www.w3.org/2000/svg" xmlns:xlink="http://www.w3.org/1999/xlink">
    <!-- Generator: Sketch 51.2 (57519) - http://www.bohemiancoding.com/sketch -->
    <title>house-sketch</title>
    <desc>Created with Sketch.</desc>
    <defs></defs>
    <g id="Page-1" stroke="none" stroke-width="1" fill="none" fill-rule="evenodd">
        <g id="Homepage-Copy" transform="translate(-381.000000, -308.000000)" fill="#FFFFFF" fill-rule="nonzero" stroke="#FFFFFF" stroke-width="0.5">
            <g id="sketches-card" transform="translate(324.000000, 277.000000)">
                <g id="Group-2" transform="translate(56.000000, 32.000000)">
                    <g id="house-sketch" transform="translate(2.000000, 0.000000)">
                        <path d="M27.2388545,66 L73.7611455,66 C74.4454887,66 75,65.5522667 75,65 C75,64.4477333 74.4454887,64 73.7611455,64 L27.2388545,64 C26.5545113,64 26,64.4477333 26,65 C26,65.5524 26.5546765,66 27.2388545,66 Z" id="Shape"></path>
                        <path d="M27.323118,26 L31.676882,26 C32.4077724,26 33,25.5522667 33,25 C33,24.4477333 32.4077724,24 31.676882,24 L27.323118,24 C26.5922276,24 26,24.4477333 26,25 C26,25.5524 26.592404,26 27.323118,26 Z" id="Shape"></path>
                        <path d="M27.323118,35 L31.676882,35 C32.4077724,35 33,34.5522667 33,34 C33,33.4477333 32.4077724,33 31.676882,33 L27.323118,33 C26.5922276,33 26,33.4477333 26,34 C26,34.5524 26.592404,35 27.323118,35 Z" id="Shape"></path>
                        <path d="M27.323118,45 L31.676882,45 C32.4077724,45 33,44.5522667 33,44 C33,43.4477333 32.4077724,43 31.676882,43 L27.323118,43 C26.5922276,43 26,43.4477333 26,44 C26,44.5521333 26.592404,45 27.323118,45 Z" id="Shape"></path>
                        <path d="M27.323118,55 L31.676882,55 C32.4077724,55 33,54.5522667 33,54 C33,53.4477333 32.4077724,53 31.676882,53 L27.323118,53 C26.5922276,53 26,53.4477333 26,54 C26,54.5522667 26.592404,55 27.323118,55 Z" id="Shape"></path>
                        <path d="M41.3504905,57 L66.6493665,57 C67.904621,57 68.9257849,55.9709354 68.9257849,54.7058065 L68.9257849,35.6227826 L70.4365722,35.6227826 C71.1235282,35.6227826 71.722942,35.1785984 71.9278519,34.517521 C72.1329231,33.8561187 71.8910939,33.1466263 71.326181,32.7521569 L54.8893761,21.2750157 C54.3644456,20.9083281 53.6357338,20.9083281 53.1104809,21.2750157 L36.673676,32.7521569 C36.1087631,33.1467887 35.8669339,33.8562812 36.0723275,34.5176835 C36.2772374,35.1785984 36.87649,35.6226201 37.563446,35.6226201 L39.0742333,35.6226201 L39.0742333,54.7058065 C39.0740721,55.9709354 40.095236,57 41.3504905,57 Z M56.9499217,54.5629982 L51.0499353,54.5629982 L51.0499353,44.2616291 L56.9499217,44.2616291 L56.9499217,54.5629982 Z M66.5076546,54.5631607 L59.3682132,54.5629982 L59.3682132,44.0643944 C59.3682132,42.8294843 58.3712322,41.8247897 57.1458033,41.8247897 L50.8542149,41.8247897 C49.6286248,41.8247897 48.631805,42.8294843 48.631805,44.0643944 L48.631805,54.5631607 L41.4925248,54.5631607 L41.4925248,35.6227826 L66.5076546,35.6227826 L66.5076546,54.5631607 Z M53.9999285,23.6187615 L67.7010008,33.1857808 L40.2988561,33.1857808 L53.9999285,23.6187615 Z" id="Shape"></path>
                        <path d="M82.7695337,19.797668 C83.4492433,19.797668 84,19.2518282 84,18.5785498 L84,14.1273051 C84,11.6983339 82.0091055,9.72222442 79.562118,9.72222442 L19.472376,9.72222442 L19.472376,9.66793302 C19.472376,4.33713518 15.1048767,0 9.73627005,0 C4.36766334,0 0.00016406218,4.33713518 0.00016406218,9.66793302 L0.00016406218,47.8056913 C0.00016406218,48.4789697 0.550920799,49.0248096 1.23063041,49.0248096 C1.91034002,49.0248096 2.46109676,48.4789697 2.46109676,47.8056913 L2.46109676,9.66793302 C2.46109676,5.68157881 5.72478569,2.43823655 9.73627005,2.43823655 C13.7477544,2.43823655 17.0114433,5.68141626 17.0114433,9.66793302 L17.0114433,10.9413427 L17.0114433,61.9076388 C16.8422952,61.7195695 16.664944,61.5368643 16.4795538,61.3600108 C14.7846274,59.7432975 12.6163816,58.8112409 10.2986752,58.6821769 C10.2509331,58.6794136 10.2025348,58.6789259 10.1546286,58.6769753 C10.0332226,58.6719363 9.91181658,58.66771 9.78975432,58.6670598 C9.77187154,58.6668973 9.75431689,58.6655969 9.73627005,58.6655969 C9.6844264,58.6655969 9.63340306,58.6690104 9.58155941,58.6698232 C9.50707518,58.670961 9.43291908,58.6699857 9.35810672,58.6727491 C9.32808334,58.6738869 9.29871621,58.6768128 9.26869283,58.6782757 C9.20273984,58.6813642 9.13727903,58.6860781 9.07149009,58.6904669 C8.96829498,58.6974565 8.865428,58.7054214 8.7630532,58.715662 C8.69447521,58.7224891 8.62622534,58.7301289 8.55797547,58.7384189 C8.46265535,58.7499599 8.36799147,58.7629638 8.27349165,58.7772681 C8.19884336,58.788484 8.12435913,58.800025 8.05036709,58.8128664 C7.96882819,58.8271707 7.88778147,58.8432631 7.80689881,58.859518 C7.72158648,58.8765856 7.63643821,58.8934907 7.55194619,58.9128341 C7.4955088,58.925838 7.43989172,58.94063 7.38378245,58.9544467 C5.45162216,59.4325036 3.74471925,60.481758 2.46093269,61.915116 L2.46093269,52.7499474 C2.46093269,52.076669 1.91017596,51.5308291 1.23046635,51.5308291 C0.550756737,51.5308291 0,52.076669 0,52.7499474 L0,68.3327172 C0,68.3478342 0.0016406218,68.3624637 0.00229687051,68.3774182 C0.0123046635,70.8809995 0.970919979,73.2350356 2.72999467,75.0450198 C4.58176449,76.950583 7.0699315,78 9.73610598,78 L79.562118,78 C82.0091055,78 84,76.0238906 84,73.5949193 L84,23.6565838 C84,22.9833054 83.4492433,22.4374655 82.7695337,22.4374655 C82.089824,22.4374655 81.5390673,22.9833054 81.5390673,23.6565838 L81.5390673,73.5947567 C81.5390673,74.6792844 80.6523112,75.5616009 79.562118,75.5616009 L9.73627005,75.5616009 C7.74504737,75.5616009 5.886551,74.777464 4.50285058,73.3536964 C3.1358845,71.9469965 2.41565153,70.0994634 2.46601862,68.1430224 C2.46716706,68.1017349 2.46733112,68.0602849 2.4691358,68.0189974 C2.47208892,67.948126 2.47733891,67.8777422 2.48242484,67.8073585 C2.48603421,67.7574559 2.48931545,67.7072282 2.49390919,67.6576507 C2.50014355,67.5903554 2.50834666,67.5235477 2.51638571,67.4567401 C2.52245601,67.4065124 2.52852631,67.3562847 2.53574505,67.3063821 C2.54558878,67.2376239 2.55707313,67.1691907 2.56888561,67.1009201 C2.57676059,67.0557314 2.58463558,67.0103802 2.59333087,66.9653541 C2.60760428,66.8915568 2.62335425,66.8182472 2.63992453,66.7452626 C2.6482917,66.7085265 2.65665887,66.6717904 2.66551823,66.6352169 C2.68536976,66.5539423 2.70653378,66.473318 2.72917436,66.3930187 C2.73639309,66.3674985 2.74361183,66.3421409 2.75099463,66.3166206 C2.7775727,66.2262433 2.80562733,66.1363537 2.83565071,66.0474393 C2.83991633,66.034923 2.84418194,66.0224068 2.84844756,66.0098905 C3.53980559,63.9999708 5.10381034,62.3800065 7.08404085,61.6031843 C7.09355646,61.5994457 7.10307206,61.595707 7.11275173,61.5919684 C7.20085312,61.5578331 7.29010295,61.5258109 7.37984496,61.4950891 C7.40511054,61.486474 7.43037611,61.4778589 7.45580575,61.4694064 C7.53291497,61.4438862 7.61068045,61.4199915 7.68877405,61.397072 C7.72814897,61.385531 7.76768795,61.3743152 7.807391,61.3634244 C7.87432837,61.3450563 7.94175793,61.327501 8.00951561,61.310921 C8.06152332,61.2982422 8.11385915,61.2863761 8.16635905,61.2748351 C8.22460112,61.2619937 8.28300726,61.24964 8.34174152,61.238099 C8.40408515,61.2260704 8.4667569,61.2151796 8.52959272,61.2046139 C8.5812723,61.1959988 8.63311595,61.1873837 8.68512366,61.1797439 C8.7543579,61.1698284 8.82392027,61.1613758 8.89364669,61.1534109 C8.94204504,61.1478843 8.99044338,61.1418699 9.03916985,61.1373186 C9.11037283,61.1304915 9.182068,61.1257776 9.25376318,61.1210637 C9.30363808,61.1178127 9.35318486,61.114074 9.40338788,61.1117984 C9.46917682,61.1088725 9.53529388,61.1080597 9.601575,61.1067593 C9.66030926,61.105784 9.71920758,61.1041585 9.77777778,61.1043211 C9.84996514,61.1048087 9.92166031,61.107247 9.99319142,61.1096852 C10.0427382,61.1113107 10.092285,61.1124486 10.1416677,61.1150493 C10.2305894,61.1199258 10.3190189,61.127078 10.4071203,61.1352054 C10.4368156,61.1378062 10.4668389,61.1399194 10.4963701,61.1428452 C10.6113777,61.1547113 10.7257291,61.1690156 10.839096,61.1862458 C10.8405726,61.1864084 10.8418851,61.1865709 10.8433616,61.186896 C14.0883475,61.6813704 16.6337722,64.3140157 16.9727247,67.5871044 C16.9978262,67.8332038 17.010623,68.0819039 17.010623,68.3330423 C17.010623,68.3423076 17.0124277,68.3510852 17.0127558,68.360188 C17.0137402,68.4032635 17.0170215,68.4456888 17.0224355,68.4876265 C17.0248964,68.5064822 17.0278496,68.5251753 17.0311308,68.5437059 C17.0385136,68.5853185 17.0478651,68.6261183 17.0593495,68.6661054 C17.0626307,68.6773213 17.0650917,68.6888623 17.068701,68.7000781 C17.0833026,68.7460795 17.1013494,68.7904555 17.1212009,68.8338561 C17.1282556,68.8494608 17.1359665,68.8647404 17.1436775,68.88002 C17.1625446,68.9170812 17.1830524,68.9531671 17.2055289,68.9879526 C17.2125836,68.9988434 17.2191461,69.0098967 17.2263648,69.020625 C17.2526147,69.0586615 17.2816537,69.0945848 17.3120052,69.1293703 C17.3239818,69.1430245 17.3361224,69.1561909 17.3487552,69.1693574 C17.3782864,69.2002417 17.4091301,69.2296631 17.4416144,69.2572965 C17.4519503,69.2660741 17.4622862,69.2748518 17.4729502,69.2833043 C17.5088799,69.311913 17.5467782,69.3380834 17.5859891,69.3626283 C17.5992781,69.3709183 17.6124031,69.3788832 17.6260203,69.3866856 C17.6714655,69.412856 17.7182232,69.4369132 17.7671137,69.4572319 C17.7684262,69.4577195 17.7695747,69.4585323 17.7708872,69.4591825 C17.7754809,69.4611331 17.7802387,69.4619458 17.7848325,69.4637338 C17.8299496,69.4816142 17.8765432,69.4964062 17.9242853,69.509085 C17.9375743,69.5124986 17.9506993,69.5160746 17.9639884,69.5191631 C18.0150117,69.5308666 18.0668553,69.5402945 18.1201755,69.545496 C18.1283787,69.5463088 18.1364177,69.5461462 18.1446208,69.5466339 C18.176777,69.5492347 18.2090972,69.5515104 18.2420737,69.5515104 C18.2553628,69.5515104 18.2681596,69.5498849 18.2812846,69.5495598 C18.2967065,69.5490721 18.3119642,69.5482594 18.3273861,69.5472841 C18.377425,69.5438705 18.4269718,69.5381813 18.4752061,69.5290786 C18.4779952,69.5285909 18.4809483,69.5284284 18.4837373,69.5277782 C18.5377138,69.5170499 18.5900496,69.5020954 18.641237,69.4847027 C18.6512448,69.4812891 18.6609245,69.4777131 18.6707682,69.4739744 C18.7190025,69.4562566 18.7660883,69.4361005 18.8112054,69.4126934 C18.8144867,69.4110679 18.817932,69.409605 18.8212132,69.4079795 C18.8691194,69.3826218 18.9145646,69.3536881 18.9583692,69.3224787 C18.968213,69.3154891 18.9778926,69.3081743 18.9875723,69.3008596 C19.0310488,69.2678622 19.0732127,69.2332392 19.1117674,69.1948776 C19.1119314,69.1947151 19.1120955,69.1945525 19.1122595,69.19439 C19.1152127,69.1914641 19.1176736,69.1882131 19.1206267,69.1851247 C19.1457282,69.159767 19.1700094,69.1335966 19.1928141,69.1061258 C19.2001969,69.0971856 19.2064312,69.0877578 19.2134859,69.078655 C19.2310406,69.0562232 19.2485952,69.033954 19.2645092,69.0103844 C19.2700874,69.0020944 19.2746811,68.9933167 19.2800952,68.9850267 C19.2963373,68.9596691 19.3124154,68.9343114 19.3266888,68.9078159 C19.329806,68.9019641 19.332431,68.8957873 19.3353841,68.889773 C19.350806,68.8603516 19.3654075,68.8304425 19.3783684,68.7997207 C19.380009,68.7958196 19.3811575,68.7917558 19.3827981,68.7876921 C19.3960871,68.7548572 19.4085558,68.7216972 19.4190558,68.6875619 C19.4203683,68.683173 19.4211886,68.6787842 19.4225011,68.6743954 C19.4323449,68.6409103 19.4413683,68.6069375 19.448423,68.5723146 C19.4505558,68.562074 19.4513761,68.5515083 19.4531808,68.5411051 C19.4582667,68.5123339 19.4633526,68.4835627 19.4663057,68.4539788 C19.4704073,68.4136666 19.4725401,68.3730294 19.4725401,68.3322295 L19.4725401,12.1602984 L79.562118,12.1602984 C80.6523112,12.1602984 81.5390673,13.042615 81.5390673,14.1271426 L81.5390673,18.5783872 C81.5390673,19.2519907 82.089824,19.797668 82.7695337,19.797668 Z" id="Shape"></path>
                    </g>
                </g>
            </g>
        </g>
    </g>
</svg>