<?xml version="1.0" encoding="UTF-8"?>
<svg width="80px" height="81px" viewBox="0 0 80 81" version="1.1" xmlns="http://www.w3.org/2000/svg" xmlns:xlink="http://www.w3.org/1999/xlink">
    <!-- Generator: Sketch 51.2 (57519) - http://www.bohemiancoding.com/sketch -->
    <title>painting</title>
    <desc>Created with Sketch.</desc>
    <defs></defs>
    <g id="Page-1" stroke="none" stroke-width="1" fill="none" fill-rule="evenodd">
        <g id="Homepage" transform="translate(-600.000000, -309.000000)" fill="#4A6AE2" fill-rule="nonzero">
            <g id="paintings-card" transform="translate(540.000000, 277.000000)">
                <g id="painting" transform="translate(60.000000, 32.000000)">
                    <path d="M77.7243773,2.22736932 C76.1349477,0.675329293 73.6544767,0.58196879 71.9413434,2.02294742 L39.3011775,30.071356 C31.4260993,36.8587898 12.1367361,59.4940123 11.3188561,60.4555002 C10.8680315,60.9843342 10.8986065,61.773669 11.3893657,62.2664746 L16.7094074,67.6087004 C16.9674226,67.8677915 17.3092069,68 17.6509912,68 C17.9369294,68 18.2242715,67.9078927 18.4663752,67.7181954 C19.5371226,66.8821803 44.803577,47.1116841 54.3064595,35.9316073 L77.8373174,8.24927838 C79.426747,6.53855683 79.3841604,3.89939953 77.7243773,2.22736932 Z M75.8516614,6.471826 L52.2822728,34.1981722 C43.9629218,43.9866136 22.4763739,61.1525711 17.7575355,64.8829184 L14.1425154,61.252824 C17.9397373,56.8254058 34.2045201,37.9844418 41.0328742,32.1000672 L73.6610285,4.06246712 C74.3113702,3.51358256 75.2610657,3.54961094 75.8543133,4.12794479 C76.4834398,4.76220096 76.4993512,5.77334532 75.8516614,6.471826 Z" id="Shape"></path>
                    <path d="M18.6088878,66.0223912 L13.9539081,61.3959736 C13.5658472,61.0133317 12.9821642,60.8946454 12.4759978,61.0987107 L11.3767573,61.5387411 C4.44052714,64.3171562 -0.02567477,70.870075 0.000111063723,78.2254942 L0.000111063723,79.6653662 C0.000111063723,80.0200176 0.144002383,80.358719 0.3991548,80.6092267 C0.654307217,80.8597344 0.997640818,80.9985927 1.35720994,80.9985927 C1.35991587,80.9985927 1.36134841,80.9985927 1.36262179,81 C9.55010152,80.9679438 16.7346397,75.5163519 18.8299774,67.7503002 L18.9520622,67.3102698 C19.079718,66.8516311 18.9480829,66.3610926 18.6088878,66.0223912 Z M2.71421688,78.2681837 L2.71430882,78.2201776 C2.69266146,71.9538883 6.49527608,66.3743843 12.4013462,64.0078526 L12.6606371,63.9038654 L16.1267625,67.350301 C14.3691873,73.3739011 8.99920788,77.6963319 2.71421688,78.2681837 Z" id="Shape"></path>
                    <rect id="Rectangle-path" transform="translate(34.500000, 45.000000) rotate(-45.000000) translate(-34.500000, -45.000000) " x="33" y="39" width="3" height="12"></rect>
                    <rect id="Rectangle-path" transform="translate(30.500000, 49.000000) rotate(-45.000000) translate(-30.500000, -49.000000) " x="29" y="43" width="3" height="12"></rect>
                    <path d="M79.8723705,44.9530286 C77.874043,35.6664792 73.4722586,27.0384314 67.1435487,20 L65.1848028,21.7967396 C71.2024478,28.4878244 75.3872319,36.6911284 77.2809399,45.4954346 C77.4636361,46.4251393 77.3127604,47.3949525 76.8548556,48.2231323 C75.790809,50.1533583 73.3702777,50.8507152 71.4472328,49.7699766 L68.7249501,48.2632409 C66.2488493,46.8793378 63.12687,47.3241358 61.1429781,49.3251786 C59.1207464,51.2941031 58.620466,54.42132 59.9175007,56.9193333 L65.3316428,67.6071767 C65.4693246,67.8783797 65.5897769,68.1602366 65.6889637,68.4500839 C66.8919339,71.9259008 65.0696281,75.7435809 61.6511748,76.9498155 C49.711191,80.8771674 34.0508472,76.3179484 21.7549395,65.3175401 L20,67.3159194 C29.8451082,76.1242991 41.8062022,81 52.6147731,81 C56.0622528,81 59.3934714,80.5030295 62.4982211,79.4812004 C67.3195704,77.7794053 69.871109,72.436032 68.1877269,67.5683215 C68.0461644,67.1636321 67.8806978,66.7694398 67.6874465,66.3901316 L62.2680269,55.6916344 C61.5071288,54.2248506 61.799567,52.3975595 62.9972597,51.2312768 C64.1659258,50.0516768 65.9922674,49.7898742 67.4466972,50.6034833 L70.1663412,52.1089656 C73.3570839,53.9002217 77.392234,52.7394226 79.1670419,49.5214913 C79.92794,48.1416617 80.1793996,46.5266641 79.8723705,44.9530286 Z" id="Shape"></path>
                    <path d="M7.8365258,8.10005024 C-4.12654912,20.3316467 -2.20332145,43.0736558 12.3098446,61 L14.3694491,59.2583239 C0.739754557,42.4238292 -1.25573719,21.2598789 9.72636465,10.0299983 C20.9984633,-1.46580041 42.7433667,1.14263132 59.2332139,15.9717731 L61,13.9228742 C43.1631567,-2.11834861 20.3087411,-4.62175787 7.8365258,8.10005024 Z" id="Shape"></path>
                    <path d="M43,8 C39.1402299,8 36,11.1402299 36,15 C36,18.8597701 39.1402299,22 43,22 C46.8597701,22 50,18.8597701 50,15 C50,11.1402299 46.8597701,8 43,8 Z M43,19.2001642 C40.6844007,19.2001642 38.8,17.3157635 38.8,15.0001642 C38.8,12.6845649 40.6844007,10.8001642 43,10.8001642 C45.3170772,10.8001642 47.2,12.6845649 47.2,15.0001642 C47.2,17.3157635 45.3155993,19.2001642 43,19.2001642 Z" id="Shape"></path>
                    <path d="M26,6 C22.1402299,6 19,9.14022989 19,13 C19,16.8597701 22.1402299,20 26,20 C29.8597701,20 33,16.8597701 33,13 C33,9.14022989 29.8597701,6 26,6 Z M26,17.2001642 C23.6844007,17.2001642 21.8,15.3157635 21.8,13.0001642 C21.8,10.6845649 23.6844007,8.8001642 26,8.8001642 C28.3170772,8.8001642 30.2,10.6845649 30.2,13.0001642 C30.2,15.3157635 28.3155993,17.2001642 26,17.2001642 Z" id="Shape"></path>
                    <path d="M14,18 C10.1402299,18 7,21.1402299 7,25 C7,28.8597701 10.1402299,32 14,32 C17.8597701,32 21,28.8597701 21,25 C21,21.1402299 17.8597701,18 14,18 Z M14,29.2 C11.6844007,29.2 9.8,27.3155993 9.8,25 C9.8,22.6844007 11.6844007,20.8 14,20.8 C16.3170772,20.8 18.2,22.6844007 18.2,25 C18.2,27.3155993 16.3155993,29.2 14,29.2 Z" id="Shape"></path>
                    <path d="M17,34 C13.1402299,34 10,37.1402299 10,41 C10,44.8597701 13.1402299,48 17,48 C20.8597701,48 24,44.8597701 24,41 C24,37.1402299 20.8599343,34 17,34 Z M17,45.2 C14.6844007,45.2 12.8,43.3155993 12.8,41 C12.8,38.6844007 14.6844007,36.8 17,36.8 C19.3170772,36.8 21.2,38.6844007 21.2,41 C21.2,43.3155993 19.3155993,45.2 17,45.2 Z" id="Shape"></path>
                    <path d="M39,58 C35.1402299,58 32,61.1402299 32,65 C32,68.8597701 35.1402299,72 39,72 C42.8597701,72 46,68.8597701 46,65 C46,61.1402299 42.8597701,58 39,58 Z M39,69.2001642 C36.6844007,69.2001642 34.8,67.3157635 34.8,65.0001642 C34.8,62.6845649 36.6844007,60.8001642 39,60.8001642 C41.3170772,60.8001642 43.2,62.6845649 43.2,65.0001642 C43.2,67.3157635 41.3155993,69.2001642 39,69.2001642 Z" id="Shape"></path>
                    <path d="M64,32 C60.6920009,32 58,34.6920009 58,38 C58,41.3079991 60.6920009,44 64,44 C67.3094065,44 70,41.3079991 70,38 C70,34.6920009 67.3079991,32 64,32 Z M64,41.3333333 C62.1613887,41.3333333 60.6666667,39.8373602 60.6666667,38 C60.6666667,36.1626398 62.1613887,34.6666667 64,34.6666667 C65.8387677,34.6666667 67.3333333,36.1626398 67.3333333,38 C67.3333333,39.8373602 65.8387677,41.3333333 64,41.3333333 Z" id="Shape"></path>
                </g>
            </g>
        </g>
    </g>
</svg>